<svg xmlns="http://www.w3.org/2000/svg" width="30" height="30" viewBox="0 0 30 30">
    <g fill="none" fill-rule="evenodd">
        <path fill="#FFF" fill-rule="nonzero" d="M29.479 21.824l-4.105-2.01-8.014 3.922a5.464 5.464 0 0 1-4.797.001l-8.016-3.923-4.108 2.01a.768.768 0 0 0-.439.687c0 .289.17.555.438.687l13.017 6.372a3.446 3.446 0 0 0 3.011 0l13.014-6.372a.766.766 0 0 0 .439-.687.765.765 0 0 0-.44-.687z"/>
        <path fill="#FFF" fill-rule="nonzero" d="M29.479 14.323l-4.224-2.067-8.343 4.085a4.463 4.463 0 0 1-3.905-.001l-8.344-4.084-4.226 2.067A.772.772 0 0 0 0 15.01c0 .289.17.556.438.688l13.017 6.371a3.433 3.433 0 0 0 3.011 0l13.014-6.371a.767.767 0 0 0 .439-.688.767.767 0 0 0-.44-.687z"/>
        <path fill="#FFF" fill-rule="nonzero" d="M.438 8.195l13.017 6.373a3.446 3.446 0 0 0 3.011 0L29.48 8.195a.763.763 0 0 0 .439-.686.766.766 0 0 0-.439-.687L16.466.452C16.032.24 15.464 0 14.991 0c-.578 0-1.103.24-1.535.451L.438 6.823A.769.769 0 0 0 0 7.51c0 .289.17.554.438.685zM14.352 2.12a1.383 1.383 0 0 1 1.219.001L26.58 7.51 15.569 12.9a1.37 1.37 0 0 1-.608.14 1.37 1.37 0 0 1-.611-.141L3.339 7.51l11.013-5.39z"/>
        <path fill="#6ABF4B" d="M14.352 2.12a1.383 1.383 0 0 1 1.219.001L26.58 7.51 15.569 12.9a1.37 1.37 0 0 1-.608.14 1.37 1.37 0 0 1-.611-.141L3.339 7.51l11.013-5.39z"/>
    </g>
</svg>
