<svg xmlns="http://www.w3.org/2000/svg" width="25" height="29" viewBox="0 0 25 29">
    <g fill="none" fill-rule="evenodd">
        <path fill="#FFF" fill-rule="nonzero" d="M19.018 23.642a12.912 12.912 0 0 1-6.239 1.601 12.91 12.91 0 0 1-6.239-1.601l-1.761 2.935a1.099 1.099 0 0 0 .943 1.666h14.113a1.1 1.1 0 0 0 .943-1.666l-1.76-2.935z"/>
        <path fill="#FFF" fill-rule="nonzero" d="M12.778.242c-6.628 0-12 5.373-12 12 0 6.628 5.372 12 12 12s12-5.372 12-12c0-6.627-5.372-12-12-12zm0 22c-5.523 0-10-4.477-10-10s4.477-10 10-10 10 4.477 10 10c0 5.524-4.476 10-10 10z"/>
        <path fill="#6ABF4B" fill-rule="nonzero" d="M12.778 3.242c-4.963 0-9 4.038-9 9 0 4.963 4.037 9 9 9s9-4.037 9-9c0-4.962-4.037-9-9-9z"/>
        <path fill="#FFF" d="M12.778 14.242c-.279 0-.545-.058-.786-.161l-2.614 1.961a.998.998 0 0 1-1.2-1.599l2.623-1.968c-.009-.077-.023-.153-.023-.232a1.99 1.99 0 0 1 1-1.723V5.242a1 1 0 1 1 2 0v5.277c.596.347 1 .984 1 1.723a2 2 0 0 1-2 2z"/>
    </g>
</svg>
