<svg xmlns="http://www.w3.org/2000/svg" width="32" height="30" viewBox="0 0 32 30">
    <g fill="none" fill-rule="evenodd">
        <path fill="#6ABF4B" d="M1 13.406l23.195-3.096L31 11v15.19L1 28z"/>
        <g fill="#FFF" fill-rule="nonzero">
            <path d="M30.1 9.883c-9.4-2.11-18.8 3.172-28.2 1.062-1.049-.232-1.9.319-1.9 1.368v14.201c0 1.048.85 2.198 1.9 2.431 9.399 2.109 18.8-3.172 28.199-1.063 1.05.232 1.9-.318 1.9-1.368V12.313c.001-1.047-.849-2.198-1.899-2.43zM30 21.108c-2.125.294-3.813 2.279-4.565 4.268-6.29-.046-12.579 2.122-18.869 2.076C5.813 25.44 4.125 23.43 2 22.216V17.72c2.125-.294 3.813-2.279 4.565-4.268 6.29.046 12.579-2.122 18.869-2.076.753 2.012 2.44 4.022 4.565 5.236L30 21.108z"/>
            <path d="M16 14.414c-2.761.485-4.999 3.01-5 5.762 0 2.77 2.239 4.724 5 4.238 2.761-.486 5-3.01 5-5.762 0-2.769-2.239-4.723-5-4.238zM6.939 6.475L8 8.576l1.061-2.101 2.101-1.061-2.101-1.06L8 2.252 6.939 4.354l-2.101 1.06zM14 2.828l.475-.939.939-.475-.939-.475L14 0l-.475.939-.939.475.939.475zM4 2.414l.335-.665L5 1.414l-.665-.335L4 .414l-.335.665L3 1.414l.665.335z"/>
        </g>
    </g>
</svg>
