<svg xmlns="http://www.w3.org/2000/svg" width="30" height="40" viewBox="0 0 30 40">
    <path fill="#6ABF4B" fill-rule="evenodd" d="M.2.912h15.848c3.995 0 7.14.97 9.436 2.912 2.296 1.941 3.444 4.405 3.444 7.392 0 4.368-2.539 7.299-7.616 8.792 2.576.373 4.639 1.484 6.188 3.332 1.55 1.848 2.324 3.985 2.324 6.412 0 3.061-1.157 5.535-3.472 7.42C24.037 39.057 20.902 40 16.944 40H.2V.912zM8.096 6.96v10.136h7.112c1.755 0 3.145-.439 4.172-1.316 1.027-.877 1.54-2.119 1.54-3.724s-.513-2.856-1.54-3.752c-1.027-.896-2.417-1.344-4.172-1.344H8.096zm0 26.992h7.952c1.755 0 3.164-.476 4.228-1.428 1.064-.952 1.596-2.268 1.596-3.948 0-1.68-.541-3.005-1.624-3.976-1.083-.97-2.501-1.456-4.256-1.456H8.096v10.808z"/>
</svg>
