<svg xmlns="http://www.w3.org/2000/svg" width="39" height="41" viewBox="0 0 39 41">
    <path fill="#6ABF4B" fill-rule="evenodd" d="M5.784 34.68C1.939 30.91.016 26.13.016 20.344c0-5.787 1.932-10.565 5.796-14.336C9.676 2.238 14.408.352 20.008.352c4.256 0 8.036 1.083 11.34 3.248 3.304 2.165 5.665 5.208 7.084 9.128h-9.464c-1.755-3.435-4.741-5.152-8.96-5.152-3.547 0-6.43 1.167-8.652 3.5-2.221 2.333-3.332 5.432-3.332 9.296 0 3.864 1.11 6.963 3.332 9.296 2.221 2.333 5.105 3.5 8.652 3.5 4.181 0 7.168-1.717 8.96-5.152h9.464c-1.419 3.92-3.78 6.953-7.084 9.1-3.304 2.147-7.084 3.22-11.34 3.22-5.637 0-10.379-1.885-14.224-5.656z"/>
</svg>
