<svg xmlns="http://www.w3.org/2000/svg" xmlns:xlink="http://www.w3.org/1999/xlink" width="458" height="458" viewBox="0 0 458 458">
    <defs>
        <path id="a" d="M0 904V0h1920v904z"/>
        <path id="c" d="M0 0h458v458H0z"/>
        <filter id="d" width="126.2%" height="126.2%" x="-13.1%" y="-13.1%" filterUnits="objectBoundingBox">
            <feOffset in="SourceAlpha" result="shadowOffsetOuter1"/>
            <feGaussianBlur in="shadowOffsetOuter1" result="shadowBlurOuter1" stdDeviation="20"/>
            <feColorMatrix in="shadowBlurOuter1" values="0 0 0 0 0 0 0 0 0 0 0 0 0 0 0 0 0 0 0.1 0"/>
        </filter>
        <path id="f" d="M0 0h190v267H0z"/>
    </defs>
    <g fill="none" fill-rule="evenodd">
        <g transform="matrix(1 0 0 -1 -194 681)">
            <mask id="b" fill="#fff">
                <use xlink:href="#a"/>
            </mask>
            <use fill="#222" xlink:href="#a"/>
            <g fill="#FFF" mask="url(#b)" opacity=".5">
                <path d="M582 293H442V153h140z" opacity=".02"/>
                <path d="M722 433H582V293h140z" opacity=".03"/>
            </g>
        </g>
        <g>
            <mask id="e" fill="#fff">
                <use xlink:href="#c"/>
            </mask>
            <use fill="#000" filter="url(#d)" xlink:href="#c"/>
            <use fill="#2D2D2D" xlink:href="#c"/>
            <g mask="url(#e)" opacity=".5">
                <g fill-rule="nonzero" transform="rotate(15 -128.602 1193.901)">
                    <use fill="#222" fill-rule="evenodd" xlink:href="#f"/>
                    <path stroke="#FFF" stroke-width="4" d="M2 2h186v263H2z"/>
                </g>
                <g stroke="#FFF" opacity=".5">
                    <path stroke-width="2" d="M335.393 90.493L270.43 332.941"/>
                    <path d="M303.3 102.082l172.901 46.328M301.23 109.81l172.9 46.328M299.16 117.537l172.9 46.328M297.089 125.264l172.9 46.329M295.018 132.991l172.9 46.329M292.948 140.719l172.9 46.328M290.877 148.446l172.9 46.329M288.806 156.174l172.901 46.328M286.736 163.901l172.9 46.329M284.665 171.628l172.901 46.33M282.595 179.356l172.9 46.328M280.524 187.083l172.901 46.329M278.454 194.81l172.9 46.33M276.383 202.538l172.9 46.329M274.313 210.265l172.9 46.33M272.242 217.993l172.9 46.329M270.172 225.72l172.9 46.329M268.101 233.448l172.9 46.328M266.03 241.175l172.901 46.329M263.96 248.903l172.9 46.328M261.89 256.63l172.9 46.329M259.819 264.357l172.9 46.329M257.748 272.085l172.9 46.328M255.678 279.812l172.9 46.329M253.607 287.54l172.9 46.328M251.537 295.267l172.9 46.329M249.466 302.994l172.9 46.329M247.395 310.722l172.901 46.328M245.325 318.45l172.9 46.328"/>
                </g>
                <g fill="#FFF" fill-rule="nonzero">
                    <path d="M255.896 313a4.012 4.012 0 0 1-2.829-4.9 4.012 4.012 0 0 1 4.9-2.828 4.012 4.012 0 0 1 2.828 4.899c-.57 2.125-2.678 3.424-4.9 2.828z"/>
                    <path d="M257.707 306.238c1.642.44 2.562 2.032 2.122 3.674-.44 1.642-2.033 2.561-3.675 2.121-1.642-.44-2.56-2.032-2.12-3.674.44-1.642 2.128-2.535 3.673-2.121zm.518-1.932c-2.705-.725-5.4.831-6.124 3.536-.724 2.704.831 5.399 3.536 6.123 2.704.725 5.399-.83 6.123-3.535.725-2.705-.83-5.4-3.535-6.124zM283.46 210.128a4.012 4.012 0 0 1-2.829-4.899 4.012 4.012 0 0 1 4.9-2.828 4.012 4.012 0 0 1 2.828 4.899c-.57 2.125-2.678 3.424-4.9 2.828z"/>
                    <path d="M285.272 203.367c1.642.44 2.56 2.032 2.12 3.674-.44 1.642-2.031 2.561-3.673 2.121-1.642-.44-2.562-2.032-2.122-3.674.44-1.642 2.13-2.535 3.675-2.121zm.517-1.932c-2.704-.725-5.399.83-6.124 3.535-.724 2.705.831 5.4 3.536 6.124 2.705.725 5.399-.83 6.124-3.535.724-2.705-.831-5.4-3.536-6.124z"/>
                    <g>
                        <path d="M311.024 107.257a4.012 4.012 0 0 1-2.828-4.899 4.012 4.012 0 0 1 4.899-2.828 4.012 4.012 0 0 1 2.828 4.899c-.57 2.125-2.677 3.423-4.899 2.828z"/>
                        <path d="M312.836 100.496c1.642.44 2.561 2.032 2.121 3.674-.44 1.642-2.032 2.561-3.674 2.121-1.642-.44-2.561-2.032-2.121-3.674.44-1.642 2.128-2.535 3.674-2.121zm.517-1.932c-2.704-.725-5.399.83-6.123 3.535-.725 2.705.83 5.4 3.535 6.124 2.705.725 5.4-.83 6.124-3.535.725-2.705-.831-5.4-3.536-6.124z"/>
                    </g>
                </g>
                <g>
                    <path fill="#222" fill-rule="nonzero" d="M-39.061 166.904l169.526-90.138L186.8 182.72 17.276 272.858z"/>
                    <path stroke="#FFF" stroke-width="2" d="M17.281 271.156L68.79 166.754l117.6 15.619"/>
                    <path fill="#222" fill-rule="nonzero" stroke="#FFF" stroke-width="4" d="M-38.116 166.968l105.307 14.34a14.255 14.255 0 0 0 14.557-7.74l48.305-97.15"/>
                    <path stroke="#FFF" stroke-width="4" d="M-39.061 166.904l169.526-90.138L186.8 182.72 17.276 272.858z"/>
                </g>
                <g>
                    <path fill="#FFF" fill-rule="nonzero" d="M172.083 410.9l-9.314 14.303-6.58-30.951 11.822-2.513z"/>
                    <path fill="#222" fill-rule="nonzero" d="M260.112 380.378L139.144 406.09 98 212.523l120.968-25.712c9.753-2.073 19.516 3.657 21.584 13.384l33.625 158.194c2.068 9.728-4.214 19.895-14.065 21.989z"/>
                    <g fill="#FFF">
                        <path fill-rule="nonzero" d="M205.217 192.742l3.788-.805 39.879 187.002-3.788.805z"/>
                        <path d="M194.758 277.295l8.83-1.877-1.83-8.602-8.829 1.877z" opacity=".5"/>
                        <path d="M199.357 299.66c.53 2.51-1.087 4.987-3.609 5.523l-22.357 4.781-4.753-22.36c-.53-2.51 1.086-4.988 3.608-5.524l14.683-3.12-1.829-8.603-16.893 3.673c-6.281 1.335-9.905 8.365-8.539 14.793l6.695 31.496 32.145-6.833-.001-.006c6.864-1.513 11.256-8.28 9.798-15.138l-3.246-15.273-8.83 1.877 3.128 14.713z"/>
                    </g>
                    <path fill="#FFF" fill-rule="nonzero" stroke="#FFF" stroke-width="2" d="M115.94 209.737l40.935 192.585"/>
                    <path stroke="#FFF" stroke-width="4" d="M100.372 214.064l40.312 189.654 119.013-25.296c8.672-1.844 14.383-10.87 12.524-19.617l-33.625-158.194c-1.806-8.493-10.38-13.721-19.212-11.844l-119.012 25.297z"/>
                </g>
            </g>
        </g>
    </g>
</svg>
