<svg xmlns="http://www.w3.org/2000/svg" xmlns:xlink="http://www.w3.org/1999/xlink" width="458" height="458" viewBox="0 0 458 458">
    <defs>
        <path id="a" d="M0 0h458v458H0z"/>
        <filter id="b" width="126.2%" height="126.2%" x="-13.1%" y="-13.1%" filterUnits="objectBoundingBox">
            <feOffset in="SourceAlpha" result="shadowOffsetOuter1"/>
            <feGaussianBlur in="shadowOffsetOuter1" result="shadowBlurOuter1" stdDeviation="20"/>
            <feColorMatrix in="shadowBlurOuter1" values="0 0 0 0 0 0 0 0 0 0 0 0 0 0 0 0 0 0 0.1 0"/>
        </filter>
        <path id="d" d="M31.773 20.515h189.994v266.992H31.773z"/>
        <path id="e" d="M31.773 20.515h189.994v266.992H31.773z"/>
        <path id="f" d="M31.773 20.515h189.994v266.992H31.773z"/>
    </defs>
    <g fill="none" fill-rule="evenodd">
        <g>
            <mask id="c" fill="#fff">
                <use xlink:href="#a"/>
            </mask>
            <use fill="#000" filter="url(#b)" xlink:href="#a"/>
            <use fill="#6ABF4B" xlink:href="#a"/>
            <g mask="url(#c)">
                <g fill-rule="nonzero" transform="rotate(-14.999 424.644 -200.89)">
                    <use fill="#6ABF4B" fill-rule="evenodd" xlink:href="#d"/>
                    <path stroke="#FFF" stroke-width="4" d="M33.773 22.515h185.994v262.992H33.773z"/>
                </g>
                <g stroke="#FFF">
                    <path stroke-width="2" d="M137.4 113.6l65 242.4"/>
                    <path d="M115.4 139.6l172.9-46.3M117.5 147.4L290.4 101M119.6 155.1l172.9-46.3M121.7 162.8l172.9-46.3M123.7 170.6l172.9-46.4M125.8 178.3L298.7 132M127.9 186l172.9-46.3M129.9 193.7l172.9-46.3M132 201.5l172.9-46.4M134.1 209.2L307 162.9M136.1 216.9L309 170.6M138.2 224.6l172.9-46.3M140.3 232.4L313.2 186M142.4 240.1l172.9-46.3M144.4 247.8l172.9-46.3M146.5 255.6l172.9-46.4M148.6 263.3L321.5 217M150.6 271l172.9-46.3M152.7 278.7l172.9-46.3M154.8 286.5l172.9-46.4M156.9 294.2l172.9-46.3M158.9 301.9l172.9-46.3M161 309.6l172.9-46.3M163.1 317.4L336 271M165.1 325.1L338 278.8M167.2 332.8l172.9-46.3M169.3 340.6l172.9-46.4M171.3 348.3L344.2 302M173.4 356l172.9-46.3"/>
                </g>
                <g fill="#FFF" fill-rule="nonzero">
                    <path d="M179.1 346.6c-1.8 0-3.4-1.2-3.9-3-.6-2.1.7-4.3 2.8-4.9.3-.1.7-.1 1-.1 1.8 0 3.4 1.2 3.9 3 .6 2.1-.7 4.3-2.8 4.9-.3 0-.6.1-1 .1z"/>
                    <path d="M179.1 339.6c1.4 0 2.5.9 2.9 2.2.4 1.6-.5 3.2-2.1 3.7-.3.1-.5.1-.8.1-1.4 0-2.5-.9-2.9-2.2-.4-1.6.5-3.2 2.1-3.7.3-.1.6-.1.8-.1zm0-2c-.4 0-.9.1-1.3.2-2.7.7-4.3 3.5-3.5 6.1.6 2.2 2.6 3.7 4.8 3.7.4 0 .9-.1 1.3-.2 2.7-.7 4.3-3.5 3.5-6.1-.5-2.3-2.6-3.7-4.8-3.7zM151.6 243.7c-1.8 0-3.4-1.2-3.9-3-.3-1-.1-2.1.4-3 .5-.9 1.4-1.6 2.4-1.9.3-.1.7-.1 1-.1 1.8 0 3.4 1.2 3.9 3 .3 1 .1 2.1-.4 3-.5.9-1.4 1.6-2.4 1.9-.3.1-.7.1-1 .1z"/>
                    <path d="M151.6 236.7c1.4 0 2.5.9 2.9 2.2.2.8.1 1.6-.3 2.3-.4.7-1 1.2-1.8 1.4-.3.1-.5.1-.8.1-1.4 0-2.5-.9-2.9-2.2-.2-.8-.1-1.6.3-2.3.4-.7 1-1.2 1.8-1.4.3-.1.5-.1.8-.1zm0-2c-.4 0-.9.1-1.3.2-2.7.7-4.3 3.5-3.5 6.1.6 2.2 2.6 3.7 4.8 3.7.4 0 .9-.1 1.3-.2 2.7-.7 4.3-3.5 3.5-6.1-.6-2.2-2.6-3.7-4.8-3.7z"/>
                    <g>
                        <path d="M124 140.8c-1.8 0-3.4-1.2-3.9-3-.6-2.1.7-4.3 2.8-4.9.3-.1.7-.1 1-.1 1.8 0 3.4 1.2 3.9 3 .6 2.1-.7 4.3-2.8 4.9-.3.1-.6.1-1 .1z"/>
                        <path d="M124 133.8c1.4 0 2.5.9 2.9 2.2.4 1.6-.5 3.2-2.1 3.7-.3.1-.5.1-.8.1-1.4 0-2.5-.9-2.9-2.2-.2-.8-.1-1.6.3-2.3.4-.7 1-1.2 1.8-1.4.3 0 .5-.1.8-.1zm0-2c-.4 0-.9.1-1.3.2-2.7.7-4.3 3.5-3.5 6.1.6 2.2 2.6 3.7 4.8 3.7.4 0 .9-.1 1.3-.2 2.7-.7 4.3-3.5 3.5-6.1-.6-2.2-2.6-3.7-4.8-3.7z"/>
                    </g>
                </g>
                <g opacity=".2">
                    <g fill-rule="nonzero" transform="rotate(-14.999 322.645 -952.317)">
                        <use fill="#6ABF4B" fill-rule="evenodd" xlink:href="#e"/>
                        <path stroke="#222" stroke-width="4" d="M33.773 22.515h185.994v262.992H33.773z"/>
                    </g>
                    <g stroke="#222">
                        <path stroke-width="2" d="M328.4 61.6l65 242.4"/>
                        <path d="M306.4 87.6l172.9-46.3M308.5 95.4L481.4 49M310.6 103.1l172.9-46.3M312.7 110.8l172.9-46.3M314.7 118.6l172.9-46.4M316.8 126.3L489.7 80M318.9 134l172.9-46.3M320.9 141.7l172.9-46.3M323 149.5l172.9-46.4M325.1 157.2L498 110.9M327.1 164.9L500 118.6M329.2 172.6l172.9-46.3M331.3 180.4L504.2 134M333.4 188.1l172.9-46.3M335.4 195.8l172.9-46.3M337.5 203.6l172.9-46.4M339.6 211.3L512.5 165M341.6 219l172.9-46.3M343.7 226.7l172.9-46.3M345.8 234.5l172.9-46.4M347.9 242.2l172.9-46.3M349.9 249.9l172.9-46.3M352 257.6l172.9-46.3M354.1 265.4L527 219M356.1 273.1L529 226.8M358.2 280.8l172.9-46.3M360.3 288.6l172.9-46.4M362.3 296.3L535.2 250M364.4 304l172.9-46.3"/>
                    </g>
                </g>
                <g opacity=".2">
                    <g fill-rule="nonzero" transform="rotate(-14.999 529.44 558.634)">
                        <use fill="#6ABF4B" fill-rule="evenodd" xlink:href="#f"/>
                        <path stroke="#222" stroke-width="4" d="M33.773 22.515h185.994v262.992H33.773z"/>
                    </g>
                    <g stroke="#222">
                        <path stroke-width="2" d="M-55.6 166.6L9.4 409"/>
                        <path d="M-77.6 192.6l172.9-46.3M-75.5 200.4L97.4 154M-73.4 208.1l172.9-46.3M-71.3 215.8l172.9-46.3M-69.3 223.6l172.9-46.4M-67.2 231.3L105.7 185M-65.1 239l172.9-46.3M-63.1 246.7l172.9-46.3M-61 254.5l172.9-46.4M-58.9 262.2L114 215.9M-56.9 269.9L116 223.6M-54.8 277.6l172.9-46.3M-52.7 285.4L120.2 239M-50.6 293.1l172.9-46.3M-48.6 300.8l172.9-46.3M-46.5 308.6l172.9-46.4M-44.4 316.3L128.5 270M-42.4 324l172.9-46.3M-40.3 331.7l172.9-46.3M-38.2 339.5l172.9-46.4M-36.1 347.2l172.9-46.3M-34.1 354.9l172.9-46.3M-32 362.6l172.9-46.3M-29.9 370.4L143 324M-27.9 378.1L145 331.8M-25.8 385.8l172.9-46.3M-23.7 393.6l172.9-46.4M-21.7 401.3L151.2 355M-19.6 409l172.9-46.3"/>
                    </g>
                </g>
            </g>
        </g>
    </g>
</svg>
