<svg xmlns="http://www.w3.org/2000/svg" width="339" height="147" viewBox="0 0 339 147">
    <g fill="#F8F8F8" fill-rule="evenodd">
        <path d="M43.802 117.698c-8.306-.01-15.062-6.746-15.062-15.03V54.436l.033-9.64c.01-8.574 6.627-15.548 14.768-15.548l10.413-.045h48.686c8.306.013 15.062 6.747 15.062 15.032l.092 73.463H43.802zm102.043 0v-76.59h-.018c-.173-22.585-18.641-40.91-41.333-40.91H40.469v.018C18.278.395.274 19.458.274 42.883v11.553l.26 55.548c0 20.634 19.82 36.719 41.091 36.719h124.267v-29.005h-20.047zM312.168 107.45c0 8.283-6.76 15.024-15.07 15.024H250.78c-8.163 0-14.923-6.62-15.065-14.754l-.01-.238v-23.84l-.047-9.272.047-9.273v-23.84l.01-.238c.142-8.136 6.902-14.755 15.065-14.755h46.319c8.308 0 15.07 6.742 15.07 15.025v1.702h26.713c-.107-5.47-1.075-10.68-2.891-15.495-1.91-5.081-4.717-9.494-8.372-13.134-3.645-3.813-8.082-6.855-13.188-9.038-5.11-2.182-10.944-3.29-17.338-3.29H250.78c-8.6 0-16.102 1.848-22.297 5.481-6.189 3.624-10.99 8.501-14.274 14.5-1.998 3.618-3.379 7.85-4.104 12.58-.743 4.76-1.116 10.09-1.116 15.846v47.856c0 5.757.373 11.09 1.116 15.848.725 4.728 2.106 8.96 4.104 12.578 3.284 5.999 8.085 10.876 14.274 14.501 6.195 3.633 13.697 5.478 22.297 5.478h46.313c6.394 0 12.229-1.106 17.338-3.289 5.106-2.182 9.543-5.224 13.188-9.037 3.655-3.64 6.462-8.053 8.372-13.133 1.816-4.815 2.784-10.023 2.89-15.495h-26.713v1.703z"/>
    </g>
</svg>
