<svg xmlns="http://www.w3.org/2000/svg" width="350" height="53" viewBox="0 0 350 53">
    <g fill="none" fill-rule="evenodd">
        <path fill="#FFF" d="M311.072 16.377v6.577h5.098v29.758h11.608v-6.525h-4.482v-29.81zM328.747 2.803V.931h7.978v1.872h-2.765v8.237h-2.462V2.803h-2.75zM349.102.931V11.04h-2.463V5.338l-2.347 5.702h-1.829l-2.347-5.702v5.702h-2.462V.931h2.822l2.909 6.97 2.894-6.97h2.823zM269.698 45.46c-2.08-.003-3.772-1.686-3.772-3.757v-4.874h22.293l.011 8.631h-18.532zm25.554-19.147c-.044-5.647-4.669-10.228-10.353-10.228h-26.103v7.252h25.64c2.08.003 3.771 1.686 3.771 3.757l.004 2.484h-29.415v7.25h.034l.031 6.704c0 5.158 4.965 9.18 10.292 9.18h26.103v-26.4h-.004zM238.736 23.194h7.286v-7.095h-7.286z"/>
        <path fill="#030100" d="M124.671 45.856v-19.53c-.015-5.502-4.426-9.991-9.896-10.255l-21.113-.025v36.335h6.692V22.595h13.918c2.083 0 3.777 1.686 3.777 3.758l.042 26.028h11.608v-6.525h-5.028zM238.736 41.613c-.003 2.07-1.695 3.753-3.776 3.753l-18.456.023V26.947c.003-2.07 1.695-3.753 3.776-3.753h12.117v-7.096l-13.955.065c-5.184 0-9.225 4.94-9.225 10.242v25.976h26.528v-.004c5.674-.043 10.277-4.647 10.277-10.302V29.478h-7.286v12.135zM154.78 45.856v-.022c-2.083 0-3.777-1.686-3.777-3.76V21.648h8.645V15.07h-8.645V6.324l-7.321 2.339v33.412c0 5.683 4.646 10.306 10.358 10.306h7.296v-6.525h-6.556zM188.92 45.856v-29.81h-12.225v6.578h5.099V52.38h11.608v-6.525zM52.068 26.646c0-1.413.343-2.497 1.02-3.222.68-.727 1.608-1.096 2.756-1.096h11.6c1.147 0 2.075.37 2.756 1.096.677.724 1.02 1.808 1.02 3.222V31.5H52.068v-4.853zm25.844 9.97v-9.564c0-1.505-.245-2.94-.727-4.267a10.318 10.318 0 0 0-2.065-3.46c-.889-.975-1.998-1.745-3.296-2.289-1.303-.545-2.777-.822-4.38-.822h-11.6c-2.154 0-4.032.46-5.584 1.369-1.552.908-2.754 2.128-3.575 3.623-.5.907-.847 1.965-1.03 3.147-.184 1.19-.278 2.523-.278 3.961V40.28c0 1.44.094 2.773.279 3.963.182 1.181.528 2.24 1.028 3.144.823 1.5 2.025 2.72 3.576 3.625 1.551.908 3.43 1.37 5.584 1.37h11.6c1.6 0 3.062-.276 4.342-.822a9.933 9.933 0 0 0 3.304-2.26c.915-.91 1.618-2.013 2.096-3.283.455-1.204.698-2.506.724-3.874h-6.69v.426c0 2.07-1.694 3.756-3.775 3.756h-11.6c-2.046 0-3.739-1.655-3.774-3.689l-.003-.06v-5.96h25.844zM8.69 52.381h14.8c4.815 0 8.445-3.098 8.445-7.207V37.8c0-4.2-2.985-5.527-7.468-6.225l-13.844-1.684c-2.288-.367-2.997-.978-2.997-4.089 0-2.956.713-3.954 2.824-3.954h10.94c2.007 0 2.824.814 2.824 2.809V26.7h7.155v-1.975c0-5.9-2.763-8.648-8.693-8.648H9.164c-6.171 0-8.69 2.974-8.69 10.265 0 6.85 2.487 8.442 7.712 9.257l13.844 1.684c2.288.367 2.997 1.442 2.997 4.9 0 3.393-.66 4.428-2.824 4.428H9.975c-2.03 0-2.822-.788-2.822-2.81v-2.65H0v2.583c0 5.9 2.761 8.647 8.69 8.647"/>
    </g>
</svg>
