<svg xmlns="http://www.w3.org/2000/svg" xmlns:xlink="http://www.w3.org/1999/xlink" width="368" height="54" viewBox="0 0 368 54">
    <defs>
        <path id="a" d="M.04.014H17.66V46.07H.04z"/>
        <path id="c" d="M0 .043h31.876v36.304H0z"/>
    </defs>
    <g fill="none" fill-rule="evenodd">
        <path fill="#6ABF4B" d="M238 23.095h7.273V16H238z"/>
        <path fill="#030100" d="M124.441 46.546v-19.53h-.001c-.014-5.502-4.417-9.992-9.877-10.255l-21.074-.025v36.335h6.68V23.284h13.892c2.079 0 3.77 1.686 3.77 3.759l.042 26.028h11.586v-6.525h-5.018zM238.295 42.302a3.768 3.768 0 0 1-3.77 3.754l-18.42.023V27.637a3.768 3.768 0 0 1 3.768-3.754h12.095v-7.095l-13.93.065c-5.174 0-9.207 4.94-9.207 10.242V53.07h26.479v-.005c5.663-.043 10.258-4.646 10.258-10.302V30.167h-7.273v12.135z"/>
        <g transform="translate(143.377 7)">
            <mask id="b" fill="#fff">
                <use xlink:href="#a"/>
            </mask>
            <path fill="#030100" d="M11.116 39.546v-.023a3.768 3.768 0 0 1-3.77-3.758V15.337h8.63V8.759h-8.63V.014L.04 2.352.04 35.765c0 5.682 4.637 10.306 10.338 10.306h7.283v-6.525h-6.545z" mask="url(#b)"/>
        </g>
        <path fill="#030100" d="M188.57 46.546v-29.81h-12.2v6.577h5.088v29.758h11.587v-6.525zM51.972 27.336c0-1.414.343-2.498 1.017-3.222.68-.727 1.606-1.096 2.752-1.096H67.32c1.146 0 2.071.369 2.751 1.096.676.723 1.018 1.808 1.018 3.222v4.853H51.972v-4.853zm25.796 9.969v-9.563c0-1.506-.244-2.94-.726-4.267a10.325 10.325 0 0 0-2.06-3.46c-.888-.975-1.995-1.746-3.29-2.289-1.302-.546-2.773-.823-4.373-.823H55.741c-2.15 0-4.024.461-5.574 1.37-1.55.908-2.75 2.127-3.568 3.623-.5.907-.845 1.965-1.027 3.146-.185 1.192-.28 2.524-.28 3.962V40.97c0 1.44.095 2.772.28 3.962.182 1.182.527 2.24 1.026 3.145.82 1.5 2.021 2.719 3.569 3.625 1.549.908 3.424 1.37 5.574 1.37H67.32c1.598 0 3.057-.277 4.335-.823a9.914 9.914 0 0 0 3.297-2.259c.913-.91 1.615-2.013 2.092-3.283.455-1.204.697-2.507.723-3.874h-6.678v.425a3.766 3.766 0 0 1-3.768 3.757H55.741c-2.041 0-3.73-1.655-3.766-3.69l-.003-.059v-5.96h25.796z"/>
        <g transform="translate(0 16.724)">
            <mask id="d" fill="#fff">
                <use xlink:href="#c"/>
            </mask>
            <path fill="#030100" d="M8.674 36.347h14.773c4.806 0 8.429-3.099 8.429-7.207v-7.374c0-4.2-2.98-5.527-7.454-6.225l-13.819-1.685c-2.283-.367-2.99-.978-2.99-4.088 0-2.956.71-3.954 2.817-3.954h10.921c2.002 0 2.818.813 2.818 2.809v2.042h7.142V8.691c0-5.9-2.757-8.648-8.676-8.648H9.147C2.987.043.473 3.016.473 10.308c0 6.85 2.482 8.442 7.698 9.257l13.818 1.684c2.284.367 2.992 1.442 2.992 4.9 0 3.393-.658 4.427-2.819 4.427H9.957c-2.027 0-2.817-.787-2.817-2.81v-2.649H0V27.7c0 5.9 2.756 8.648 8.674 8.648" mask="url(#d)"/>
        </g>
        <path fill="#6ABF4B" d="M269.2 46.424a3.768 3.768 0 0 1-3.765-3.757V30.609l.008-2.41c.003-2.143 1.657-3.887 3.692-3.887l2.603-.011h12.172a3.769 3.769 0 0 1 3.765 3.758l.023 18.365h-18.497zm25.511 0V27.277h-.004c-.044-5.646-4.66-10.228-10.334-10.228h-16.005v.005c-5.549.045-10.05 4.81-10.05 10.667v2.888l.066 13.887c0 5.158 4.955 9.18 10.272 9.18h31.067v-7.252h-5.012zM336.292 43.863c0 2.07-1.69 3.755-3.767 3.755h-11.58c-2.04 0-3.73-1.654-3.766-3.688l-.003-.06v-5.96l-.012-2.317.012-2.319v-5.96l.003-.06c.035-2.033 1.725-3.688 3.766-3.688h11.58a3.767 3.767 0 0 1 3.767 3.756v.426h6.678a11.577 11.577 0 0 0-.722-3.874c-.478-1.27-1.18-2.374-2.093-3.283a9.917 9.917 0 0 0-3.297-2.26c-1.278-.546-2.736-.822-4.335-.822h-11.578c-2.15 0-4.025.462-5.574 1.37-1.547.906-2.748 2.125-3.569 3.625-.5.904-.844 1.962-1.026 3.145-.185 1.19-.279 2.522-.279 3.961v11.964c0 1.44.094 2.773.28 3.962.18 1.182.526 2.24 1.025 3.145.821 1.5 2.022 2.719 3.569 3.625 1.549.908 3.424 1.37 5.574 1.37h11.578c1.599 0 3.057-.277 4.335-.823a9.91 9.91 0 0 0 3.297-2.259c.913-.91 1.615-2.013 2.093-3.283.454-1.204.696-2.506.722-3.874h-6.678v.426z"/>
        <path fill="#030100" d="M346.747 2.803V.931h7.978v1.872h-2.765v8.237h-2.462V2.803h-2.75zM367.102.931V11.04h-2.463V5.338l-2.347 5.702h-1.829l-2.347-5.702v5.702h-2.462V.931h2.822l2.909 6.97 2.894-6.97h2.823z"/>
    </g>
</svg>
