<svg xmlns="http://www.w3.org/2000/svg" width="756" height="143" viewBox="0 0 756 143">
    <g fill="#FFF" fill-rule="evenodd">
        <path d="M733.555 52.75h22.371V30.861h-22.371zM383.363 122.667v-60.25h-.004c-.044-16.976-13.586-30.827-30.38-31.639l-64.82-.078v112.097h20.544V50.903h42.731c6.395 0 11.597 5.201 11.597 11.595l.127 80.299h35.64v-20.13h-15.435z"/>
        <path d="M733.555 109.575c-.01 6.387-5.203 11.581-11.593 11.581l-56.661.07V64.331c.009-6.386 5.203-11.58 11.593-11.58h37.2V30.86l-42.843.2c-15.915 0-28.321 15.24-28.321 31.597v80.14h81.443v-.015c17.42-.133 31.553-14.334 31.553-31.783V72.137h-22.371v37.438zM475.799 122.667v-.07c-6.395 0-11.595-5.201-11.595-11.596V47.979h26.543V27.687h-26.543V.706l-22.476 7.215.003 103.08c0 17.532 14.262 31.796 31.797 31.796h22.4v-20.13h-20.13zM580.613 122.667V30.7h-37.53v20.292h15.653v91.805h35.638v-20.13zM160.463 63.402c0-4.361 1.052-7.705 3.127-9.94 2.09-2.243 4.939-3.381 8.465-3.381h35.613c3.522 0 6.37 1.138 8.46 3.382 2.08 2.23 3.13 5.575 3.13 9.939v14.97h-58.795v-14.97zm79.343 30.756V64.654c0-4.644-.752-9.072-2.232-13.163-1.467-4.064-3.602-7.657-6.34-10.676-2.73-3.007-6.134-5.384-10.118-7.061-4.002-1.683-8.527-2.537-13.448-2.537h-35.613c-6.613 0-12.38 1.42-17.145 4.223-4.765 2.804-8.455 6.566-10.974 11.18-1.54 2.797-2.6 6.062-3.16 9.707-.57 3.674-.857 7.785-.857 12.222v36.913c0 4.44.288 8.553.857 12.224.56 3.646 1.62 6.91 3.157 9.7 2.525 4.628 6.217 8.39 10.977 11.184 4.763 2.803 10.532 4.227 17.145 4.227h35.613c4.915 0 9.4-.853 13.33-2.537 3.928-1.684 7.339-4.03 10.143-6.971 2.809-2.806 4.968-6.211 6.436-10.13 1.397-3.713 2.142-7.731 2.223-11.951h-20.541v1.314c0 6.389-5.2 11.588-11.588 11.588h-35.616c-6.28 0-11.475-5.105-11.585-11.38l-.007-.185V94.158h79.343zM27.286 142.797h45.439c14.782 0 25.927-9.56 25.927-22.234v-22.75c0-12.96-9.165-17.051-22.928-19.205L33.22 73.412c-7.022-1.132-9.2-3.017-9.2-12.613 0-9.121 2.188-12.2 8.669-12.2h33.59c6.159 0 8.669 2.51 8.669 8.666v6.302h21.964v-6.092c0-18.202-8.48-26.68-26.685-26.68H28.74c-18.947 0-26.678 9.174-26.678 31.669 0 21.132 7.635 26.045 23.677 28.559l42.502 5.196c7.023 1.13 9.2 4.448 9.2 15.118 0 10.467-2.023 13.658-8.667 13.658H31.233c-6.235 0-8.665-2.43-8.665-8.67v-8.172H.607v7.966c0 18.2 8.477 26.678 26.679 26.678"/>
    </g>
</svg>
